<svg width="286" height="54" viewBox="0 0 286 54" fill="none" xmlns="http://www.w3.org/2000/svg">
<path d="M277.218 33.2871C275.704 33.2871 274.369 33.0051 273.211 32.4412C272.054 31.8475 271.015 31.061 270.095 30.0815L271.831 30.7939L271.653 32.8419H263.238V28.924H265.553V10.581H263.238V6.66309H272.143V17.9716L271.03 17.7045C271.712 16.7844 272.618 16.0423 273.745 15.4784C274.873 14.8848 276.15 14.588 277.574 14.588C279.207 14.588 280.617 14.9738 281.804 15.7455C283.021 16.4875 283.941 17.5412 284.564 18.9066C285.217 20.2719 285.544 21.8747 285.544 23.7149C285.544 25.6739 285.188 27.3657 284.475 28.7904C283.792 30.2151 282.828 31.3281 281.581 32.1295C280.335 32.9012 278.88 33.2871 277.218 33.2871ZM274.903 28.3897C276.061 28.3897 276.981 27.989 277.663 27.1876C278.376 26.3862 278.732 25.3029 278.732 23.9375C278.732 22.4831 278.376 21.3849 277.663 20.6429C276.951 19.8712 276.031 19.4853 274.903 19.4853C274.191 19.4853 273.508 19.6634 272.855 20.0196C272.202 20.3758 271.623 20.91 271.119 21.6224L272.143 19.3518V28.8794L270.985 26.5643C271.549 27.1282 272.143 27.5735 272.766 27.9C273.419 28.2264 274.131 28.3897 274.903 28.3897Z" fill="white"/>
<path d="M247.003 33.287C245.193 33.287 243.753 32.8121 242.685 31.8623C241.616 30.9125 241.082 29.6511 241.082 28.078C241.082 26.7423 241.409 25.6738 242.062 24.8724C242.744 24.0413 243.62 23.4477 244.688 23.0915C245.786 22.7354 246.944 22.5573 248.161 22.5573C249.17 22.5573 250.105 22.6463 250.966 22.8244C251.827 23.0025 252.539 23.2251 253.103 23.4922L252.079 23.7148V22.2456C252.079 21.1177 251.782 20.2867 251.188 19.7524C250.625 19.1885 249.793 18.9065 248.695 18.9065C247.864 18.9065 246.974 19.0252 246.024 19.2627C245.104 19.5001 244.035 19.886 242.818 20.4202L241.349 16.6359C242.833 15.9532 244.317 15.4486 245.801 15.1222C247.285 14.766 248.784 14.5879 250.298 14.5879C252.049 14.5879 253.533 14.8847 254.75 15.4783C255.997 16.0423 256.932 16.8733 257.555 17.9715C258.208 19.0401 258.535 20.3312 258.535 21.8449V28.9239H260.672V32.8418H253.103L252.212 30.0815H253.815C252.836 31.15 251.797 31.9514 250.699 32.4856C249.601 33.0199 248.369 33.287 247.003 33.287ZM249.274 29.8588C249.897 29.8588 250.521 29.7104 251.144 29.4136C251.767 29.1168 252.361 28.6271 252.925 27.9444L252.079 29.5917V25.2731L252.925 26.2081C252.509 25.9706 252.02 25.7777 251.456 25.6293C250.921 25.4809 250.328 25.4067 249.675 25.4067C248.962 25.4067 248.324 25.5848 247.76 25.9409C247.226 26.2674 246.959 26.8462 246.959 27.6773C246.959 28.36 247.152 28.8942 247.538 29.2801C247.953 29.6659 248.532 29.8588 249.274 29.8588Z" fill="white"/>
<path d="M215.098 32.842V28.3007H217.635V11.338H215.098V7.1084H227.742V11.338H225.204V28.3007H232.239V21.4889H237.269V32.842H215.098Z" fill="white"/>
<path d="M176.023 32.8418V28.9239H178.339V18.9065H176.068V15.0331H184.483L184.616 17.1702L182.969 17.838C184.186 16.8288 185.432 16.0423 186.709 15.4783C187.985 14.8847 189.321 14.5879 190.716 14.5879C192.704 14.5879 194.203 15.1964 195.212 16.4133C196.251 17.6005 196.771 19.0697 196.771 20.8209V28.9239H199.041V32.8418H188.267V28.9239H190.181V21.8449C190.181 20.9545 189.974 20.2718 189.558 19.7969C189.143 19.2924 188.549 19.0401 187.777 19.0401C187.124 19.0401 186.427 19.2033 185.685 19.5298C184.943 19.8266 184.245 20.2273 183.592 20.7319L184.972 18.0606V28.9239H186.887V32.8418H176.023ZM200.466 32.8418V28.9239H202.38V21.8449C202.38 20.9545 202.158 20.2718 201.712 19.7969C201.297 19.2924 200.718 19.0401 199.976 19.0401C199.293 19.0401 198.596 19.1885 197.884 19.4853C197.201 19.7821 196.548 20.1828 195.925 20.6874L195.123 17.838C196.34 16.8288 197.572 16.0423 198.819 15.4783C200.095 14.8847 201.445 14.5879 202.87 14.5879C204.799 14.5879 206.298 15.1815 207.367 16.3688C208.435 17.5263 208.97 18.9955 208.97 20.7764V28.9239H211.24V32.8418H200.466Z" fill="white"/>
<path d="M158.646 33.2871C157.281 33.2871 156.138 33.0051 155.218 32.4412C154.327 31.8773 153.659 31.1204 153.214 30.1706C152.769 29.2208 152.546 28.182 152.546 27.0541V18.9066H150.32V15.0332H159.18V26.0746C159.18 26.9353 159.373 27.618 159.759 28.1226C160.174 28.5975 160.768 28.8349 161.54 28.8349C162.282 28.8349 163.009 28.6569 163.721 28.3007C164.463 27.9445 165.146 27.4548 165.769 26.8315L164.434 29.6809V18.9066H162.475V15.0332H171.023V28.924H173.338V32.8419H164.968L164.745 30.5268L166.393 29.9035C165.235 30.9423 164.018 31.7734 162.742 32.3967C161.466 32.9903 160.1 33.2871 158.646 33.2871Z" fill="white"/>
<path d="M136.719 32.8416V28.9237H139.034V18.9063H136.719V15.0329H145.668V28.9237H147.938V32.8416H136.719ZM141.839 11.7383C140.681 11.7383 139.746 11.3969 139.034 10.7143C138.322 10.0316 137.965 9.14116 137.965 8.04296C137.965 6.91508 138.322 6.02464 139.034 5.37166C139.746 4.68899 140.681 4.34766 141.839 4.34766C142.996 4.34766 143.916 4.68899 144.599 5.37166C145.311 6.02464 145.668 6.91508 145.668 8.04296C145.697 9.14116 145.356 10.0316 144.644 10.7143C143.931 11.3969 142.996 11.7383 141.839 11.7383Z" fill="white"/>
<path d="M111.195 32.8418V28.9239H113.51V18.9065H111.195V15.0331H119.654L119.788 17.2147L118.141 17.838C119.358 16.8288 120.604 16.0423 121.881 15.4783C123.157 14.8847 124.492 14.5879 125.887 14.5879C127.817 14.5879 129.316 15.1815 130.384 16.3688C131.453 17.5263 131.987 18.9955 131.987 20.7764V28.9239H134.258V32.8418H123.483V28.9239H125.353V21.8449C125.353 20.9545 125.145 20.2718 124.73 19.7969C124.314 19.2924 123.736 19.0401 122.994 19.0401C122.281 19.0401 121.569 19.2033 120.857 19.5298C120.144 19.8266 119.447 20.2422 118.764 20.7764L120.144 18.0606V28.9239H122.059V32.8418H111.195Z" fill="white"/>
<path d="M99.8298 33.3311C97.7818 33.3311 95.9861 32.9601 94.4427 32.2181C92.929 31.4761 91.7417 30.4075 90.881 29.0125C90.0202 27.5878 89.5898 25.896 89.5898 23.9371C89.5898 22.0671 90.0054 20.4347 90.8365 19.0397C91.6675 17.6446 92.8103 16.5464 94.2646 15.7451C95.7487 14.9437 97.4405 14.543 99.3401 14.543C101.21 14.543 102.798 14.9437 104.104 15.7451C105.44 16.5168 106.449 17.6001 107.131 18.9951C107.844 20.3605 108.2 21.9484 108.2 23.759V24.9611H93.2406L93.2851 22.1562H102.1C102.1 21.4438 101.982 20.8502 101.744 20.3753C101.537 19.8707 101.21 19.4849 100.765 19.2178C100.32 18.9506 99.7705 18.8171 99.1175 18.8171C98.3755 18.8171 97.7522 19.01 97.2476 19.3958C96.743 19.752 96.3571 20.2863 96.09 20.9986C95.8526 21.6813 95.7338 22.4975 95.7338 23.4473C95.7338 24.5455 95.9416 25.4656 96.3571 26.2077C96.8024 26.92 97.396 27.4691 98.138 27.855C98.88 28.2111 99.7408 28.3892 100.72 28.3892C101.789 28.3892 102.798 28.2111 103.748 27.855C104.698 27.4988 105.529 27.0387 106.241 26.4748L108.066 30.3927C107.057 31.2831 105.855 31.9955 104.46 32.5298C103.065 33.064 101.522 33.3311 99.8298 33.3311Z" fill="white"/>
<path d="M71.0844 33.2871C68.1756 33.2871 65.6082 32.738 63.3821 31.6398C61.1857 30.5416 59.4642 28.9982 58.2176 27.0095C56.971 24.9912 56.3477 22.6761 56.3477 20.0641C56.3477 17.3928 56.9264 15.0629 58.084 13.0742C59.2713 11.0559 60.9037 9.4828 62.9814 8.35491C65.0591 7.22703 67.4633 6.66309 70.1939 6.66309C73.073 6.66309 75.3881 7.28639 77.1393 8.533C78.9202 9.74993 80.0777 11.323 80.612 13.2523L78.7866 12.1393V7.1083H83.8176V16.3243H79.499C78.7569 14.8699 77.7775 13.7569 76.5605 12.9852C75.3733 12.2135 73.8744 11.8276 72.0638 11.8276C70.461 11.8276 69.066 12.1541 67.8788 12.8071C66.7212 13.4304 65.8159 14.3505 65.163 15.5674C64.5397 16.7547 64.228 18.2239 64.228 19.9751C64.228 21.6669 64.5248 23.1213 65.1184 24.3382C65.7121 25.5551 66.5431 26.4901 67.6117 27.1431C68.7099 27.7961 69.9713 28.1226 71.396 28.1226C72.3458 28.1226 73.2066 28.0038 73.9783 27.7664C74.75 27.5289 75.4178 27.1728 75.9817 26.6979C76.5457 26.223 76.9761 25.6293 77.2729 24.917C77.5994 24.2047 77.7626 23.3587 77.7626 22.3793L80.2113 23.4033H73.2659V18.8175H84.9306V20.6429C84.9306 22.78 84.5893 24.6499 83.9066 26.2526C83.2239 27.8258 82.2445 29.1317 80.9682 30.1706C79.7216 31.2094 78.2524 31.996 76.5605 32.5302C74.8984 33.0348 73.073 33.2871 71.0844 33.2871Z" fill="white"/>
<path d="M252.836 41.4648C251.853 41.4648 251.203 41.0566 251.203 40.4775H252.202C252.202 40.7244 252.44 40.9047 252.836 40.9047C253.217 40.9047 253.455 40.7244 253.455 40.4775H254.454C254.454 41.0566 253.82 41.4648 252.836 41.4648ZM248.617 48.7937V42.1484H249.902V47.7114C249.997 47.569 250.378 47.1893 250.378 47.1893L255.644 42.1484H257.024V48.7937H255.739V43.2211C255.644 43.3635 255.263 43.7432 255.263 43.7432L249.997 48.7937H248.617Z" fill="#B4B4B4"/>
<path d="M236.484 48.7937V42.1484H237.769V47.7115C237.864 47.5691 238.245 47.1894 238.245 47.1894L243.511 42.1484H244.891V48.7937H243.606V43.2212C243.511 43.3636 243.13 43.7433 243.13 43.7433L237.864 48.7937H236.484Z" fill="#B4B4B4"/>
<path d="M224.473 42.1484H225.805V45.0439H231.436V42.1484H232.768V48.7937H231.436V45.7654H225.805V48.7937H224.473V42.1484Z" fill="#B4B4B4"/>
<path d="M211.707 48.7937L216.148 42.1484H217.512L221.954 48.7937H220.542L219.273 46.8381H214.388L213.119 48.7937H211.707ZM214.832 46.1546H218.829L217.132 43.5345C217.021 43.3826 216.894 43.1642 216.83 43.0313C216.767 43.1642 216.64 43.3826 216.529 43.5345L214.832 46.1546Z" fill="#B4B4B4"/>
<path d="M200.902 42.1484H202.235V45.0439H207.866V42.1484H209.198V48.7937H207.866V45.7654H202.235V48.7937H200.902V42.1484Z" fill="#B4B4B4"/>
<path d="M195.643 45.2149C196.944 45.4807 197.737 46.0503 197.737 46.8667C197.737 48.1198 196.071 48.9267 193.628 48.9267C191.217 48.9267 189.822 48.1293 189.473 47.0945L190.71 46.8287C190.884 47.5502 191.947 48.2147 193.628 48.2147C195.262 48.2147 196.404 47.7401 196.404 46.8857C196.404 46.0503 195.246 45.6421 193.644 45.6421H192.582V44.9396H193.66C195.104 44.9396 195.96 44.4839 195.96 43.7814C195.96 43.1168 195.104 42.7276 193.692 42.7276C192.106 42.7276 191.297 43.1928 191.043 43.8478L189.822 43.6864C190.155 42.7466 191.376 42.0156 193.692 42.0156C196.039 42.0156 197.245 42.7656 197.245 43.7244C197.245 44.4364 196.658 44.9491 195.643 45.2149Z" fill="#B4B4B4"/>
<path d="M175.943 42.1484H180.305V48.7937H178.973V45.9837H176.403L173.611 48.7937H172.168L175.023 45.9078C173.262 45.6989 172.374 45.0154 172.374 44.0376C172.374 42.9554 173.691 42.1484 175.943 42.1484ZM178.973 45.2907V42.8414H176.102C174.579 42.8414 173.707 43.2402 173.707 44.0661C173.707 44.892 174.579 45.2907 176.102 45.2907H178.973Z" fill="#B4B4B4"/>
<path d="M160.578 48.7937V42.1484H161.863V47.7115C161.958 47.5691 162.339 47.1894 162.339 47.1894L167.605 42.1484H168.985V48.7937H167.7V43.2212C167.605 43.3636 167.224 43.7433 167.224 43.7433L161.958 48.7937H160.578Z" fill="#B4B4B4"/>
<path d="M145.965 42.1484H147.424L151.405 48.0438L155.403 42.1484H156.862V48.7937H155.561V43.6769C155.466 43.8477 155.006 44.6167 155.006 44.6167L152.103 48.7937H150.723L147.821 44.6262C147.821 44.6262 147.345 43.8477 147.25 43.6769V48.7937H145.965V42.1484Z" fill="#B4B4B4"/>
<path d="M135.629 42.1484H142.56V42.8509H136.961V45.0059H142.116V45.7084H136.961V48.0912H142.608V48.7937H135.629V42.1484Z" fill="#B4B4B4"/>
<path d="M122.34 49.9899V48.0817H123.228C123.942 47.2843 124.18 46.6293 124.275 45.4711L124.576 42.1484H131.238V48.0817H132.602V49.9899H131.349V48.7937H123.593V49.9899H122.34ZM124.608 48.0817H129.906V42.8509H125.798L125.56 45.547C125.449 46.7147 125.243 47.3318 124.608 48.0817Z" fill="#B4B4B4"/>
<path d="M109.582 48.7937L114.023 42.1484H115.387L119.829 48.7937H118.417L117.148 46.8381H112.263L110.994 48.7937H109.582ZM112.707 46.1546H116.704L115.007 43.5345C114.896 43.3826 114.769 43.1642 114.705 43.0313C114.642 43.1642 114.515 43.3826 114.404 43.5345L112.707 46.1546Z" fill="#B4B4B4"/>
<path d="M102.324 45.3762L107.479 48.7937H105.766L102.038 46.316L101.055 45.661V48.7937H99.7227V42.1484H101.055V45.1483C101.325 44.9585 101.705 44.7116 102.086 44.4553L105.544 42.1484H107.289L102.324 45.3762Z" fill="#B4B4B4"/>
<path d="M86.957 48.7937L91.3983 42.1484H92.7624L97.2037 48.7937H95.792L94.5231 46.8381H89.6377L88.3687 48.7937H86.957ZM90.0818 46.1546H94.079L92.3818 43.5345C92.2707 43.3826 92.1438 43.1642 92.0804 43.0313C92.0169 43.1642 91.89 43.3826 91.779 43.5345L90.0818 46.1546Z" fill="#B4B4B4"/>
<g clip-path="url(#clip0_957_247)">
<path d="M34.3649 6.84625C34.8453 5.77228 36.1719 4.92205 36.1719 4.92205C34.5479 4.49694 32.9469 4.76543 32.0091 5.0563C31.4602 4.47457 29.3102 -0.805799 20.6415 0.0891779C20.6415 0.0891779 22.8373 1.25265 24.1639 3.40059C24.1639 3.40059 23.6149 3.35584 23.249 3.37822C13.8713 3.60196 5.866 11.5225 5.77451 20.696C5.70589 26.8714 8.9309 32.3307 13.8256 35.4855C14.6947 36.0449 15.2208 37.007 15.2208 38.0362V38.5956C15.2208 40.0499 16.433 41.2358 17.9197 41.2358H29.4245C30.9112 41.2358 32.1234 40.0499 32.1234 38.5956V38.0586C32.1234 37.0517 32.6266 36.0896 33.4958 35.5303C38.3676 32.3979 41.5697 27.0056 41.5697 20.8974C41.5697 15.1472 38.7336 10.0458 34.3649 6.84625Z" fill="url(#paint0_linear_957_247)"/>
<path d="M24.3235 34.971C16.364 34.971 11.172 33.3824 7.85547 29.0641C9.27355 31.6596 11.3321 33.8746 13.8251 35.4856C14.6943 36.045 15.2204 37.0071 15.2204 38.0363V38.5956C15.2204 40.05 16.4326 41.2358 17.9193 41.2358H29.4241C30.9108 41.2358 32.123 40.05 32.123 38.5956V38.0587C32.123 37.0518 32.6262 36.0897 33.4954 35.5303C36.1257 33.8299 38.2757 31.4806 39.6709 28.7285C36.5602 33.0244 30.0188 34.971 24.3235 34.971Z" fill="url(#paint1_linear_957_247)"/>
<path d="M32.0086 23.8955C33.6507 23.8955 34.982 22.1425 34.982 19.98C34.982 17.8175 33.6507 16.0645 32.0086 16.0645C30.3664 16.0645 29.0352 17.8175 29.0352 19.98C29.0352 22.1425 30.3664 23.8955 32.0086 23.8955Z" fill="#00042D"/>
<path d="M31.1844 18.7278C31.7781 18.7278 32.2594 18.2568 32.2594 17.6759C32.2594 17.095 31.7781 16.624 31.1844 16.624C30.5907 16.624 30.1094 17.095 30.1094 17.6759C30.1094 18.2568 30.5907 18.7278 31.1844 18.7278Z" fill="white"/>
<path d="M15.2429 23.8955C16.8851 23.8955 18.2163 22.1425 18.2163 19.98C18.2163 17.8175 16.8851 16.0645 15.2429 16.0645C13.6008 16.0645 12.2695 17.8175 12.2695 19.98C12.2695 22.1425 13.6008 23.8955 15.2429 23.8955Z" fill="#00042D"/>
<path d="M14.3953 18.7278C14.989 18.7278 15.4703 18.2568 15.4703 17.6759C15.4703 17.095 14.989 16.624 14.3953 16.624C13.8016 16.624 13.3203 17.095 13.3203 17.6759C13.3203 18.2568 13.8016 18.7278 14.3953 18.7278Z" fill="white"/>
<path d="M29.9721 44.3463H17.1407C16.2715 44.3463 15.5625 43.6525 15.5625 42.8021C15.5625 41.9516 16.2715 41.2578 17.1407 41.2578H29.9721C30.8412 41.2578 31.5503 41.9516 31.5503 42.8021C31.5731 43.6525 30.8641 44.3463 29.9721 44.3463Z" fill="url(#paint2_linear_957_247)"/>
<path d="M24.2558 48.9996H23.0664C21.877 48.9996 20.8249 48.2612 20.4361 47.1649L19.4297 44.3457H27.8925L26.8861 47.1649C26.5201 48.2612 25.4451 48.9996 24.2558 48.9996Z" fill="url(#paint3_linear_957_247)"/>
<path d="M26.8729 47.2291L27.8896 44.3408L19.4375 44.3408L20.4569 47.2291H26.8729Z" fill="url(#paint4_linear_957_247)" fill-opacity="0.82"/>
<path d="M34.8447 8.63574C31.0936 8.63574 27.8229 10.6271 26.0617 13.6029C25.4899 12.7974 24.5293 12.2828 23.4771 12.2828C22.425 12.2828 21.4872 12.775 20.9154 13.5581C19.1543 10.6271 15.8835 8.63574 12.1553 8.63574C6.5516 8.63574 2 13.0883 2 18.57C2 24.0517 6.5516 28.5042 12.1553 28.5042C17.759 28.5042 22.2878 24.0517 22.2878 18.57C22.2878 17.3618 22.059 16.1759 21.6473 15.102C21.7846 14.2517 22.5394 13.6029 23.4543 13.6029C24.4149 13.6029 25.1926 14.3188 25.284 15.2138C24.8952 16.2654 24.6894 17.3841 24.6894 18.57C24.6894 24.0517 29.241 28.5042 34.8447 28.5042C40.4484 28.5042 45 24.0517 45 18.57C45 13.0883 40.4484 8.63574 34.8447 8.63574ZM12.1553 27.1841C7.28351 27.1841 3.34947 23.3357 3.34947 18.57C3.34947 13.8042 7.28351 9.95583 12.1553 9.95583C17.0271 9.95583 20.9612 13.8042 20.9612 18.57C20.9612 23.3357 17.0043 27.1841 12.1553 27.1841ZM34.8447 27.1841C29.9729 27.1841 26.0388 23.3357 26.0388 18.57C26.0388 13.8042 29.9729 9.95583 34.8447 9.95583C39.7165 9.95583 43.6505 13.8042 43.6505 18.57C43.6505 23.3357 39.7165 27.1841 34.8447 27.1841Z" fill="white"/>
<path d="M23.889 31.3239C23.7975 31.3239 23.6832 31.3239 23.5688 31.3239C22.1965 31.2344 20.8927 30.429 20.2066 29.2655C19.955 28.8404 20.0922 28.281 20.5496 28.0349C20.9842 27.7888 21.556 27.923 21.8076 28.3705C22.1965 29.0194 22.9512 29.4892 23.706 29.534C24.4151 29.5787 25.3528 29.3102 25.8103 28.4153C26.039 27.9678 26.5879 27.7888 27.0454 28.0125C27.5028 28.2363 27.6858 28.7733 27.4571 29.2207C26.7938 30.4961 25.4215 31.3239 23.889 31.3239Z" fill="#00042D"/>
</g>
<defs>
<linearGradient id="paint0_linear_957_247" x1="12.1852" y1="50.8875" x2="29.6092" y2="3.48773" gradientUnits="userSpaceOnUse">
<stop stop-color="#D26900"/>
<stop offset="0.0922435" stop-color="#CB6500"/>
<stop offset="0.2837" stop-color="#D66B00"/>
<stop offset="0.48529" stop-color="#FF8D1C"/>
<stop offset="0.6215" stop-color="#FDB50B"/>
<stop offset="0.823322" stop-color="#FFC94A"/>
<stop offset="0.9846" stop-color="#FFE19A"/>
<stop offset="1" stop-color="#FFE19A"/>
</linearGradient>
<linearGradient id="paint1_linear_957_247" x1="23.7704" y1="24.8328" x2="23.7704" y2="50.1079" gradientUnits="userSpaceOnUse">
<stop stop-color="#250B47" stop-opacity="0"/>
<stop offset="0.2757" stop-color="#250B47" stop-opacity="0.2757"/>
<stop offset="0.6158" stop-color="#250B47" stop-opacity="0.6158"/>
<stop offset="0.8672" stop-color="#250B47" stop-opacity="0.84"/>
<stop offset="1" stop-color="#250B47"/>
</linearGradient>
<linearGradient id="paint2_linear_957_247" x1="19.7507" y1="52.7213" x2="35.7432" y2="9.22721" gradientUnits="userSpaceOnUse">
<stop stop-color="#250B47"/>
<stop offset="0.0922435" stop-color="#250B47"/>
<stop offset="0.2837" stop-color="#260E46"/>
<stop offset="0.5494" stop-color="#361365"/>
<stop offset="0.6215" stop-color="#361365"/>
<stop offset="0.7714" stop-color="#511E96"/>
<stop offset="0.9846" stop-color="#511E96"/>
<stop offset="1" stop-color="#511E96"/>
</linearGradient>
<linearGradient id="paint3_linear_957_247" x1="21.2733" y1="50.7047" x2="38.0714" y2="5.00767" gradientUnits="userSpaceOnUse">
<stop stop-color="#250B47"/>
<stop offset="0.0922435" stop-color="#250B47"/>
<stop offset="0.2837" stop-color="#2D0F55"/>
<stop offset="0.5494" stop-color="#4E2189"/>
<stop offset="0.6215" stop-color="#622BA9"/>
<stop offset="0.7714" stop-color="#622BA9"/>
<stop offset="0.9846" stop-color="#622BA9"/>
<stop offset="1" stop-color="#622BA9"/>
</linearGradient>
<linearGradient id="paint4_linear_957_247" x1="23.3443" y1="46.1687" x2="23.3332" y2="43.644" gradientUnits="userSpaceOnUse">
<stop stop-color="#250B47"/>
<stop offset="0.2757" stop-color="#47138B"/>
<stop offset="0.545354" stop-color="#352270"/>
<stop offset="0.848931" stop-color="#2D0D57"/>
<stop offset="1" stop-color="#350C6A"/>
</linearGradient>
<clipPath id="clip0_957_247">
<rect width="43" height="49" fill="white" transform="translate(2)"/>
</clipPath>
</defs>
</svg>
